<?xml version="1.0" encoding="utf-8"?>
<!-- Generator: Adobe Illustrator 26.3.1, SVG Export Plug-In . SVG Version: 6.00 Build 0)  -->
<svg version="1.1" id="レイヤー_1" xmlns="http://www.w3.org/2000/svg" xmlns:xlink="http://www.w3.org/1999/xlink" x="0px"
	 y="0px" width="206px" height="70px" viewBox="0 0 206 70" style="enable-background:new 0 0 206 70;" xml:space="preserve">
<style type="text/css">
	.st0{fill:#FFFFFF;}
</style>
<g>
	<path class="st0" d="M6.488,18.399c1.014,1.742,2.834,2.47,5.486,2.574c3.12,0.13,9.256,0.052,12.845-0.234
		c-0.364,0.729-0.806,2.158-0.962,3.017c-3.224,0.156-8.736,0.208-11.908,0.078c-3.094-0.13-5.174-0.884-6.734-2.886
		c-1.04,1.014-2.106,2.002-3.432,3.12l-1.456-3.068c1.014-0.65,2.184-1.508,3.224-2.392v-5.668H0.637v-2.834h5.851V18.399z
		 M4.642,6.751c-0.728-1.274-2.444-3.068-3.9-4.316l2.366-1.768c1.456,1.17,3.25,2.886,4.082,4.134L4.642,6.751z M9.218,9.091
		c-0.468,0.494-0.936,0.937-1.404,1.353C7.346,9.819,6.202,8.571,5.552,7.999c2.393-1.82,4.55-4.81,5.747-7.904l3.068,0.884
		c-0.39,0.937-0.832,1.846-1.326,2.756h2.964c0.442-1.144,0.832-2.418,1.092-3.432l3.406,0.65c-0.468,0.936-0.936,1.898-1.404,2.782
		H23.7v2.6h-5.174v1.638h4.472v2.496h-4.472v1.716h4.368v2.496h-4.368v1.768h5.616v2.6H9.218V9.091z M15.588,6.335h-3.38v1.638h3.38
		V6.335z M15.588,10.469h-3.38v1.716h3.38V10.469z M15.588,14.681h-3.38v1.768h3.38V14.681z"/>
	<path class="st0" d="M36.05,1.368c-0.754,1.768-1.664,3.536-2.704,5.252v17.628h-3.094v-13.26c-0.832,1.014-1.716,1.95-2.574,2.756
		c-0.338-0.78-1.222-2.496-1.794-3.276c2.808-2.366,5.538-6.188,7.098-10.115L36.05,1.368z M46.372,21.103
		c1.248,0,1.456-0.884,1.664-4.55c0.728,0.546,2.028,1.144,2.86,1.326c-0.364,4.472-1.17,6.11-4.238,6.11h-4.446
		c-3.276,0-4.212-1.04-4.212-4.707V0.693h3.12v8.892c2.444-1.404,4.836-3.068,6.553-4.55l2.288,2.704
		c-2.574,1.82-5.798,3.562-8.841,5.018v6.552c0,1.534,0.182,1.794,1.43,1.794H46.372z"/>
	<path class="st0" d="M68.368,3.319c0,0.208,0,0.494-0.026,0.806c2.626,0,6.188-0.052,7.541-0.026l-0.026,3.068
		c-1.56-0.078-3.978-0.13-7.514-0.13c0,1.326,0.026,2.756,0.026,3.9c0.624,0.988,0.937,2.21,0.937,3.562
		c0,3.38-1.977,7.696-8.32,9.465l-2.782-2.756c2.626-0.546,4.914-1.404,6.344-2.964c-0.364,0.078-0.754,0.13-1.17,0.13
		c-2.002,0-4.472-1.612-4.472-4.784c0-2.938,2.366-4.862,5.2-4.862c0.364,0,0.702,0.026,1.04,0.078c0-0.572,0-1.17-0.026-1.742
		c-3.926,0.052-7.982,0.208-11.18,0.39L53.86,4.306c2.964,0,7.696-0.104,11.232-0.156c-0.026-0.338-0.026-0.598-0.052-0.806
		c-0.078-1.066-0.182-1.95-0.26-2.262h3.77C68.498,1.499,68.394,2.903,68.368,3.319z M64.026,15.487c1.092,0,2.054-0.832,1.69-3.12
		c-0.364-0.598-0.988-0.91-1.69-0.91c-1.014,0-2.002,0.702-2.002,2.08C62.024,14.733,62.986,15.487,64.026,15.487z"/>
	<path class="st0" d="M85.658,2.357c1.378,0,6.942-0.104,8.424-0.234c1.066-0.104,1.664-0.182,1.976-0.286l1.69,2.314
		c-0.598,0.39-1.222,0.754-1.82,1.196c-1.404,0.988-4.134,3.276-5.772,4.576c0.858-0.208,1.638-0.286,2.47-0.286
		c4.42,0,7.774,2.756,7.774,6.552c0,4.108-3.12,7.358-9.412,7.358c-3.614,0-6.344-1.664-6.344-4.265
		c0-2.106,1.898-4.056,4.654-4.056c3.224,0,5.174,1.976,5.538,4.446c1.43-0.754,2.158-1.95,2.158-3.536
		c0-2.34-2.34-3.926-5.408-3.926c-3.978,0-6.579,2.106-9.36,5.278l-2.366-2.444c1.846-1.482,4.992-4.134,6.526-5.408
		c1.456-1.196,4.16-3.38,5.434-4.499c-1.326,0.026-4.914,0.182-6.292,0.26c-0.702,0.052-1.534,0.13-2.132,0.208l-0.104-3.38
		C84.02,2.331,84.93,2.357,85.658,2.357z M90.338,20.583c0.546,0,1.04-0.026,1.508-0.078c-0.156-1.69-1.118-2.782-2.522-2.782
		c-0.988,0-1.612,0.598-1.612,1.248C87.712,19.933,88.778,20.583,90.338,20.583z"/>
	<path class="st0" d="M128.48,23.235h-19.656v1.092h-3.094V1.213h22.153v2.964h-14.066l2.366,0.598
		c-0.182,0.494-0.416,0.962-0.676,1.43h10.634v2.574h-6.032v1.924h7.176v2.652h-6.838c1.378,2.028,3.848,3.276,7.307,3.744
		c-0.676,0.624-1.482,1.768-1.846,2.574c-3.224-0.65-5.486-2.002-7.072-4.056c-1.196,1.612-3.38,3.094-7.125,4.16
		c-0.39-0.65-1.274-1.716-1.898-2.288c4.42-1.04,6.188-2.574,6.864-4.134h-6.63v-2.652h6.994V8.779h-3.224
		c-0.494,0.624-1.014,1.17-1.534,1.638c-0.598-0.442-1.872-1.17-2.574-1.508c1.534-1.118,2.86-2.938,3.536-4.732h-4.42v16.121
		h19.656V23.235z"/>
	<path class="st0" d="M146.602,18.659c2.158,1.353,5.122,2.393,8.112,2.912c-0.598,0.598-1.43,1.69-1.82,2.444
		c-3.302-0.754-6.5-2.34-8.814-4.394v4.654h-3.042v-4.732c-2.34,2.054-5.564,3.718-8.736,4.576c-0.416-0.728-1.248-1.82-1.846-2.392
		c2.73-0.598,5.59-1.716,7.722-3.068h-7.15v-2.6h10.01v-1.145h-3.406V6.361h2.964c0.234-0.65,0.468-1.326,0.598-1.872l3.016,0.468
		c-0.234,0.494-0.468,0.962-0.676,1.404h4.108v5.46l1.378-1.482c1.612,0.858,3.952,2.185,5.122,3.094l-1.872,2.106
		c-0.988-0.832-3.016-2.158-4.628-3.068v2.444h-3.562v1.145h10.037v2.6H146.602z M137.502,12.939
		c-1.794,0.884-3.744,1.82-5.356,2.574l-1.222-2.6c1.534-0.52,3.744-1.482,5.954-2.418L137.502,12.939z M136.514,4.098h-5.486v-2.6
		h5.486V0.043h3.068v1.456h5.954V0.043h3.094v1.456h5.564v2.6h-5.564v1.69h-3.094v-1.69h-5.954v1.69h-3.068V4.098z M133.679,5.477
		c1.196,0.988,2.574,2.392,3.198,3.432l-2.392,1.69c-0.546-1.014-1.872-2.522-3.068-3.562L133.679,5.477z M144.782,8.363h-4.42
		v1.326h4.42V8.363z M140.362,12.913h4.42v-1.352h-4.42V12.913z M147.98,9.065c1.014-0.962,2.314-2.496,3.068-3.666l2.678,1.274
		c-1.066,1.326-2.34,2.678-3.354,3.562L147.98,9.065z"/>
	<path class="st0" d="M157.469,12.601h9.88v11.571h-3.094v-1.17h-3.874v1.3h-2.912V12.601z M160.382,15.565v4.472h3.874v-4.472
		H160.382z M176.268,10.443h-15.236V1.031h15.236V10.443z M173.122,3.995h-9.101v3.51h9.101V3.995z M179.779,12.601v11.597h-3.12
		v-1.196h-4.134v1.3h-2.964V12.601H179.779z M176.658,20.037v-4.472h-4.134v4.472H176.658z"/>
	<path class="st0" d="M195.768,23.261l-1.95-3.094c0.988-0.104,1.716-0.26,2.418-0.416c3.328-0.78,5.928-3.172,5.928-6.968
		c0-3.588-1.95-6.266-5.46-6.864c-0.364,2.21-0.806,4.602-1.56,7.046c-1.561,5.252-3.796,8.476-6.63,8.476
		c-2.886,0-5.278-3.172-5.278-7.566c0-6.006,5.2-11.128,11.935-11.128c6.448,0,10.504,4.472,10.504,10.14
		C205.675,18.373,202.32,22.247,195.768,23.261z M188.618,17.437c1.092,0,2.106-1.638,3.172-5.148
		c0.598-1.924,1.092-4.134,1.378-6.292c-4.29,0.884-6.604,4.68-6.604,7.54C186.564,16.163,187.604,17.437,188.618,17.437z"/>
	<path class="st0" d="M8.412,47.726c1.118,0,6.006-0.234,7.592-0.39c0.832-0.104,1.43-0.208,1.794-0.338l2.054,2.392
		c-0.546,0.364-1.508,0.988-2.054,1.43c-1.846,1.482-4.394,3.64-6.188,5.018c3.484-0.338,7.8-0.624,10.972-0.624v3.068
		c-2.496-0.13-5.096-0.156-6.682,0.078c-2.392,0.312-4.368,2.002-4.368,4.134c0,2.054,1.612,2.86,3.926,3.12
		c1.456,0.156,2.99,0.156,3.978,0.078l-0.702,3.406c-6.656,0.286-10.53-1.716-10.53-6.058c0-1.586,0.91-3.198,1.898-4.108
		c-2.392,0.208-5.304,0.598-7.904,1.04l-0.312-3.146c1.378-0.13,3.198-0.364,4.576-0.52c2.314-1.508,5.694-4.472,7.307-5.902
		c-1.066,0.078-4.265,0.234-5.331,0.338c-0.65,0.052-1.508,0.13-2.34,0.234l-0.156-3.328C6.774,47.7,7.528,47.726,8.412,47.726z"/>
	<path class="st0" d="M39.768,68.761l-1.95-3.094c0.988-0.104,1.716-0.26,2.418-0.416c3.328-0.78,5.928-3.172,5.928-6.968
		c0-3.588-1.95-6.266-5.46-6.864c-0.364,2.21-0.806,4.602-1.56,7.046c-1.561,5.252-3.796,8.476-6.63,8.476
		c-2.886,0-5.278-3.172-5.278-7.566c0-6.006,5.2-11.128,11.935-11.128c6.448,0,10.504,4.472,10.504,10.14
		C49.675,63.873,46.32,67.747,39.768,68.761z M32.618,62.937c1.092,0,2.106-1.638,3.172-5.148c0.598-1.924,1.092-4.134,1.378-6.292
		c-4.29,0.884-6.604,4.68-6.604,7.54C30.564,61.663,31.604,62.937,32.618,62.937z"/>
	<path class="st0" d="M72.554,66.499c0.78,0,0.936-0.494,1.04-3.562c0.624,0.52,1.976,1.04,2.808,1.248
		c-0.312,4.108-1.144,5.226-3.562,5.226h-3.017c-2.912,0-3.588-0.962-3.588-3.9v-6.318H62.44c-0.572,4.628-1.898,8.502-7.878,10.764
		c-0.364-0.832-1.222-2.08-1.924-2.73c5.174-1.69,6.162-4.602,6.552-8.034h-6.136v-2.99h9.958v-4.212H58.54
		c-0.598,1.326-1.274,2.574-2.002,3.536c-0.702-0.442-2.002-1.066-2.73-1.353c1.69-2.132,2.912-5.642,3.458-8.294l3.172,0.624
		c-0.234,0.806-0.494,1.638-0.78,2.522h3.354v-3.51h3.146v3.51h7.982v2.964h-7.982v4.212h10.011v2.99h-6.812v6.318
		c0,0.858,0.13,0.988,0.936,0.988H72.554z"/>
	<path class="st0" d="M80.744,57.763c1.196-1.248,3.198-3.926,4.81-5.798c1.82-2.054,3.51-2.236,5.408-0.39
		c1.768,1.716,3.848,4.394,5.382,6.058c1.664,1.82,3.874,4.16,6.344,6.37l-2.678,3.12c-1.872-1.768-4.082-4.29-5.72-6.214
		c-1.612-1.924-3.562-4.394-4.784-5.772c-0.91-1.014-1.404-0.884-2.158,0.078c-1.04,1.3-2.886,3.875-4.004,5.356
		c-0.598,0.858-1.196,1.794-1.638,2.47l-3.172-3.25C79.314,59.193,79.964,58.595,80.744,57.763z"/>
</g>
</svg>
