<?xml version="1.0" encoding="utf-8"?>
<!-- Generator: Adobe Illustrator 26.3.1, SVG Export Plug-In . SVG Version: 6.00 Build 0)  -->
<svg version="1.1" id="レイヤー_1" xmlns="http://www.w3.org/2000/svg" xmlns:xlink="http://www.w3.org/1999/xlink" x="0px"
	 y="0px" width="792px" height="136px" viewBox="0 0 792 136" style="enable-background:new 0 0 792 136;" xml:space="preserve">
<style type="text/css">
	.st0{opacity:0.24;}
	.st1{fill:#D4DBDE;}
</style>
<g class="st0">
	<path class="st1" d="M47.968,50.01l-25.326,84.018H0.13L42.542,8.002h10.854l42.411,126.027H72.892L47.968,50.01z M71.485,104.884
		H22.441l3.216-16.281h42.009L71.485,104.884z"/>
	<path class="st1" d="M144.649,134.23c-3.084-0.936-5.93-2.377-8.542-4.322c-2.613-1.941-4.994-4.252-7.136-6.935l-3.819,11.055
		h-17.286V0.364h22.713h2.01v1.831c-0.804,0.813-1.307,1.696-1.508,2.645c-0.201,0.948-0.301,2.575-0.301,4.877v43.108
		c1.473-1.875,3.081-3.618,4.824-5.226c1.74-1.608,3.684-2.98,5.829-4.12c2.142-1.137,4.388-1.976,6.734-2.513
		c2.343-0.534,4.723-0.804,7.135-0.804c5.76,0,10.955,0.98,15.578,2.937s8.574,4.859,11.859,8.706
		c3.282,3.847,5.829,8.64,7.638,14.378c1.809,5.741,2.713,12.458,2.713,20.153c0,8.348-1.04,15.621-3.116,21.814
		c-2.079,6.197-4.924,11.316-8.542,15.358c-3.618,4.045-7.738,7.076-12.361,9.098c-4.623,2.02-9.547,3.031-14.773,3.031
		C150.946,135.636,147.73,135.165,144.649,134.23z M157.714,116.312c2.544-1.093,4.755-2.795,6.633-5.106
		c1.875-2.312,3.348-5.364,4.422-9.155c1.071-3.788,1.608-8.382,1.608-13.778c0-4.88-0.471-9.249-1.407-13.103
		c-0.939-3.854-2.28-7.098-4.02-9.733c-1.743-2.632-3.854-4.658-6.332-6.071c-2.481-1.413-5.326-2.12-8.542-2.12
		c-3.888,0-7.271,1.19-10.15,3.565c-2.883,2.377-5.06,5.813-6.533,10.311c-1.476,4.498-2.28,9.893-2.412,16.187
		c0,4.883,0.367,9.221,1.105,13.008c0.735,3.791,1.875,7.003,3.417,9.635c1.539,2.632,3.483,4.623,5.829,5.974
		c2.343,1.351,5.126,2.022,8.342,2.022C152.488,117.948,155.167,117.405,157.714,116.312z"/>
	<path class="st1" d="M248.767,135.636c-8.31,0-15.848-1.998-22.612-5.992c-6.768-3.995-12.095-9.591-15.979-16.796
		c-3.888-7.202-5.829-15.518-5.829-24.949c0-9.036,1.941-17.154,5.829-24.359c3.885-7.205,9.211-12.901,15.979-17.091
		c6.765-4.189,14.302-6.288,22.612-6.288c8.442,0,16.045,2.098,22.813,6.288c6.765,4.19,12.126,9.887,16.08,17.091
		c3.951,7.205,5.93,15.323,5.93,24.359c0,9.431-1.979,17.748-5.93,24.949c-3.954,7.205-9.315,12.801-16.08,16.796
		C264.812,133.639,257.209,135.636,248.767,135.636z M248.767,117.547c4.422,0,8.241-1.259,11.457-3.778
		c3.216-2.519,5.794-6.005,7.739-10.461c1.941-4.457,2.915-9.591,2.915-15.405c0-6.067-0.974-11.3-2.915-15.69
		c-1.944-4.391-4.522-7.783-7.739-10.172c-3.216-2.39-7.035-3.587-11.457-3.587c-4.02,0-7.672,1.197-10.954,3.587
		c-3.285,2.39-5.898,5.782-7.839,10.172c-1.944,4.391-2.915,9.623-2.915,15.69c0,5.813,0.936,10.948,2.814,15.405
		c1.875,4.457,4.454,7.943,7.739,10.461C240.894,116.287,244.612,117.547,248.767,117.547z"/>
	<path class="st1" d="M341.83,135.636c-3.753,0-7.305-0.49-10.653-1.47c-3.351-0.98-6.366-2.481-9.045-4.507
		c-2.682-2.022-4.994-4.604-6.935-7.738c-1.944-3.134-3.452-6.891-4.522-11.269c-1.074-4.375-1.608-9.372-1.608-14.99V42.172h22.914
		v53.167c0,4.026,0.333,7.434,1.005,10.226c0.669,2.792,1.674,5.062,3.015,6.815c1.338,1.752,2.914,3.018,4.723,3.797
		c1.809,0.779,3.719,1.168,5.729,1.168c2.814,0,5.393-0.487,7.739-1.46c2.343-0.974,4.353-2.434,6.03-4.381
		c1.674-1.947,2.98-4.381,3.919-7.302c0.936-2.92,1.407-6.394,1.407-10.42v-51.61h22.713v77.237c0,2.899,0.101,5.499,0.302,7.805
		c0.201,2.305,0.769,4.579,1.708,6.815h-20.703c-0.672-1.429-1.14-2.858-1.407-4.287c-0.27-1.429-0.437-2.896-0.502-4.396
		c-0.069-1.501-0.101-2.893-0.101-4.18c-1.476,2.28-3.15,4.321-5.025,6.13c-1.878,1.809-3.919,3.316-6.13,4.522
		s-4.557,2.145-7.035,2.814C346.887,135.301,344.374,135.636,341.83,135.636z"/>
	<path class="st1" d="M411.577,42.172h71.958l-0.201,17.889h-72.159L411.577,42.172z M445.848,133.068
		c-3.954-1.712-7.236-4.479-9.85-8.301c-2.612-3.822-4.491-8.894-5.628-15.219c-1.14-6.325-1.508-14.165-1.105-23.523l2.613-66.016
		l23.517-2.965l1.81-0.198l0.2,1.774c-0.536,0.92-1.073,1.84-1.607,2.758c-0.537,0.92-0.873,2.497-1.005,4.729l-2.211,27.195
		l1.005,1.379l-1.608,30.74c-0.401,8.542-0.101,15.144,0.904,19.808c1.006,4.664,2.544,7.848,4.623,9.557
		c2.076,1.708,4.589,2.56,7.538,2.56c4.287,0,8.141-0.87,11.558-2.613c3.417-1.74,6.598-3.75,9.547-6.03l4.824,16.482
		c-4.557,3.351-9.415,5.93-14.572,7.739c-5.16,1.809-10.688,2.713-16.583,2.713C454.457,135.636,449.798,134.779,445.848,133.068z"
		/>
	<path class="st1" d="M643.331,135.636c-3.753,0-7.306-0.49-10.653-1.47c-3.351-0.98-6.366-2.481-9.045-4.507
		c-2.683-2.022-4.994-4.604-6.935-7.738c-1.944-3.134-3.451-6.891-4.522-11.269c-1.074-4.375-1.608-9.372-1.608-14.99V42.172h22.914
		v53.167c0,4.026,0.333,7.434,1.005,10.226c0.669,2.792,1.675,5.062,3.016,6.815c1.338,1.752,2.914,3.018,4.724,3.797
		c1.809,0.779,3.718,1.168,5.729,1.168c2.813,0,5.393-0.487,7.738-1.46c2.343-0.974,4.353-2.434,6.03-4.381
		c1.674-1.947,2.98-4.381,3.919-7.302c0.937-2.92,1.407-6.394,1.407-10.42v-51.61h22.713v77.237c0,2.899,0.101,5.499,0.302,7.805
		c0.201,2.305,0.77,4.579,1.708,6.815h-20.703c-0.672-1.429-1.14-2.858-1.406-4.287c-0.271-1.429-0.437-2.896-0.503-4.396
		c-0.069-1.501-0.101-2.893-0.101-4.18c-1.476,2.28-3.149,4.321-5.024,6.13c-1.879,1.809-3.92,3.316-6.131,4.522
		s-4.557,2.145-7.035,2.814C648.386,135.301,645.875,135.636,643.331,135.636z"/>
	<path class="st1" d="M736.997,134.129c-5.227-1.005-10.051-2.613-14.473-4.824s-8.511-5.056-12.261-8.542l10.05-18.492l0.805-1.608
		l1.607,1.005c0.402,0.939,0.804,1.979,1.206,3.115c0.402,1.14,1.407,2.447,3.015,3.919c3.349,2.814,7.167,5.025,11.457,6.633
		c4.287,1.608,9.378,2.412,15.276,2.412c3.75,0,6.935-0.405,9.548-1.219c2.612-0.811,4.623-1.935,6.029-3.373
		c1.407-1.435,2.111-3.09,2.111-4.965c0-1.567-0.402-2.939-1.206-4.117c-0.805-1.175-2.079-2.221-3.819-3.138
		c-1.743-0.914-4.021-1.862-6.834-2.842c-2.814-0.98-6.165-2.057-10.05-3.235c-6.834-1.696-12.764-3.819-17.789-6.369
		c-5.024-2.55-8.878-5.653-11.558-9.312c-2.682-3.659-4.02-7.908-4.02-12.745c0-5.097,1.508-9.607,4.522-13.527
		c3.015-3.919,7.268-7.025,12.764-9.312c5.493-2.287,11.991-3.433,19.497-3.433c3.885,0,7.568,0.302,11.055,0.905
		c3.483,0.603,6.8,1.476,9.949,2.613c3.147,1.14,6.097,2.613,8.845,4.422c2.744,1.809,5.326,3.92,7.738,6.332l-11.055,15.477
		L778,71.517l-1.407-1.206c-0.135-1.071-0.437-2.111-0.904-3.116c-0.472-1.005-1.508-2.242-3.115-3.718
		c-2.683-2.01-5.729-3.483-9.146-4.422c-3.417-0.936-6.803-1.407-10.151-1.407c-4.557,0-8.477,0.685-11.758,2.051
		c-3.285,1.369-4.925,3.483-4.925,6.341c0,1.699,0.735,3.235,2.211,4.607c1.473,1.373,3.92,2.679,7.337,3.919
		c3.417,1.244,7.939,2.582,13.567,4.02c7.503,1.959,13.633,4.215,18.392,6.765c4.755,2.55,8.24,5.587,10.452,9.118
		c2.211,3.53,3.316,7.644,3.316,12.349c0,5.097-1.477,9.868-4.423,14.312c-2.948,4.444-7.271,7.974-12.964,10.587
		c-5.697,2.61-12.764,3.919-21.206,3.919C747.649,135.636,742.222,135.134,736.997,134.129z"/>
</g>
</svg>
