<?xml version="1.0" encoding="utf-8"?>
<!-- Generator: Adobe Illustrator 26.3.1, SVG Export Plug-In . SVG Version: 6.00 Build 0)  -->
<svg version="1.1" id="レイヤー_1" xmlns="http://www.w3.org/2000/svg" xmlns:xlink="http://www.w3.org/1999/xlink" x="0px"
	 y="0px" width="610px" height="132px" viewBox="0 0 610 132" style="enable-background:new 0 0 610 132;" xml:space="preserve">
<style type="text/css">
	.st0{opacity:0.4;}
	.st1{fill:#FFFFFF;}
</style>
<g class="st0">
	<path class="st1" d="M49.998,46.712l-23.692,83.039l-26.082-0.03L42.806-0.019l14.283,0.016l42.288,129.837l-26.496-0.03
		L49.998,46.712z M74.568,102.275l-51.543-0.058l3.333-18.42l44.298,0.05L74.568,102.275z"/>
	<path class="st1" d="M138.812,128.032c-6.139-2.342-11.482-5.686-16.031-10.032c-4.55-4.343-8.063-9.453-10.54-15.33
		c-2.477-5.877-3.712-12.353-3.704-19.43c0.008-6.941,1.257-13.45,3.748-19.522c2.491-6.071,6.016-11.372,10.576-15.908
		c4.559-4.532,9.91-8.097,16.054-10.694c6.142-2.597,12.803-3.893,19.98-3.885c9.244,0.01,17.247,1.675,24.006,4.995
		c6.757,3.32,12.133,8.019,16.131,14.094l-14.301,15.716l-1.451,1.448l-1.654-1.244c-0.138-1.103-0.308-2.242-0.514-3.416
		c-0.206-1.171-1-2.656-2.376-4.453c-2.482-2.487-5.274-4.178-8.378-5.081c-3.103-0.9-6.658-1.353-10.659-1.358
		c-3.312-0.004-6.418,0.647-9.318,1.946c-2.899,1.3-5.524,3.186-7.872,5.661c-2.351,2.475-4.182,5.539-5.496,9.186
		c-1.318,3.65-1.976,7.886-1.981,12.712c-0.005,4.172,0.679,7.99,2.056,11.446c1.374,3.456,3.202,6.327,5.477,8.61
		c2.274,2.286,4.892,4.049,7.859,5.291c2.965,1.242,6.034,1.863,9.21,1.867c2.898,0.003,5.693-0.372,8.385-1.129
		c2.691-0.754,5.384-1.992,8.076-3.717c2.693-1.721,5.284-4.098,7.771-7.132l14.264,16.576c-5.253,5.79-11.432,9.958-18.541,12.502
		c-7.112,2.544-14.116,3.813-21.015,3.805C151.538,131.549,144.948,130.371,138.812,128.032z"/>
	<path class="st1" d="M242.312,128.149c-6.139-2.342-11.482-5.686-16.031-10.032c-4.55-4.343-8.063-9.453-10.54-15.33
		c-2.477-5.877-3.712-12.353-3.704-19.43c0.008-6.941,1.257-13.45,3.748-19.522c2.491-6.071,6.016-11.372,10.576-15.908
		c4.559-4.532,9.91-8.097,16.054-10.694c6.142-2.597,12.803-3.893,19.98-3.885c9.244,0.01,17.247,1.675,24.006,4.995
		c6.757,3.32,12.134,8.019,16.131,14.094L288.23,68.155l-1.451,1.448l-1.654-1.244c-0.138-1.103-0.308-2.242-0.514-3.416
		c-0.206-1.171-1-2.656-2.376-4.453c-2.482-2.487-5.274-4.178-8.378-5.081c-3.103-0.9-6.658-1.353-10.659-1.358
		c-3.312-0.004-6.418,0.647-9.318,1.946c-2.899,1.3-5.524,3.186-7.872,5.661c-2.351,2.475-4.182,5.539-5.496,9.186
		c-1.318,3.65-1.976,7.886-1.981,12.712c-0.005,4.172,0.679,7.99,2.056,11.446c1.374,3.456,3.202,6.327,5.477,8.61
		c2.274,2.286,4.892,4.049,7.859,5.291c2.965,1.242,6.034,1.863,9.21,1.867c2.898,0.003,5.693-0.372,8.385-1.129
		c2.691-0.754,5.384-1.992,8.076-3.717c2.693-1.721,5.284-4.098,7.771-7.132l14.264,16.576c-5.253,5.79-11.432,9.958-18.541,12.502
		c-7.112,2.544-14.116,3.813-21.015,3.805C255.038,131.666,248.448,130.488,242.312,128.149z"/>
	<path class="st1" d="M364.334,131.79c-6.901-0.008-13.317-1.118-19.247-3.324c-5.932-2.209-11.068-5.385-15.41-9.53
		c-4.343-4.145-7.752-9.22-10.23-15.232c-2.477-6.009-3.711-12.819-3.702-20.429c0.009-7.743,1.223-14.715,3.646-20.922
		c2.42-6.204,5.705-11.44,9.851-15.708c4.145-4.268,9.012-7.532,14.605-9.796c5.591-2.264,11.628-3.393,18.116-3.385
		c5.656,0.006,11.002,0.992,16.039,2.958c5.034,1.966,9.517,4.908,13.445,8.829c3.929,3.921,7.028,8.786,9.299,14.597
		c2.27,5.811,3.401,12.498,3.392,20.06c-0.002,1.488-0.004,3.312-0.006,5.473c-0.002,2.161-0.076,3.985-0.213,5.469l-62.721-0.071
		c0.27,3.513,1.131,6.554,2.578,9.124c1.445,2.57,3.306,4.703,5.582,6.397c2.274,1.694,4.825,2.949,7.654,3.767
		c2.826,0.818,5.692,1.229,8.589,1.232c2.898,0.003,5.621-0.233,8.178-0.715c2.552-0.479,5.038-1.34,7.455-2.579
		c2.414-1.239,4.729-3.028,6.941-5.374l13.233,13.056c-3.181,3.722-6.703,6.791-10.568,9.2c-3.868,2.412-8.045,4.166-12.529,5.264
		C373.821,131.248,369.163,131.795,364.334,131.79z M341.426,71.113l37.467,0.042c0.003-2.83-0.376-5.34-1.13-7.528
		c-0.757-2.187-1.929-3.99-3.512-5.409c-1.586-1.418-3.484-2.481-5.689-3.192c-2.208-0.711-4.761-1.069-7.658-1.073
		c-2.484-0.003-4.832,0.318-7.039,0.959c-2.21,0.641-4.178,1.668-5.903,3.082c-1.729,1.415-3.144,3.215-4.249,5.4
		C342.604,65.58,341.844,68.154,341.426,71.113z"/>
	<path class="st1" d="M448.792,130.23c-5.519-1.109-10.657-2.771-15.415-4.985c-4.759-2.211-9.07-5.186-12.927-8.916l10.994-20.687
		l0.83-1.655l1.862,1.037c0.273,0.967,0.651,2.038,1.134,3.21c0.481,1.174,1.55,2.521,3.204,4.04
		c3.584,2.902,7.653,5.151,12.205,6.741c4.552,1.593,9.794,2.391,15.73,2.398c3.447,0.004,6.381-0.333,8.798-1.009
		c2.414-0.676,4.313-1.661,5.696-2.953c1.379-1.292,2.073-2.682,2.075-4.163c0.002-1.469-0.446-2.737-1.341-3.805
		c-0.898-1.068-2.242-2.04-4.033-2.909c-1.794-0.869-4.07-1.741-6.828-2.611c-2.762-0.87-6.072-1.841-9.933-2.916
		c-7.035-1.742-13.107-3.919-18.208-6.528c-5.103-2.606-9.033-5.78-11.788-9.522c-2.757-3.742-4.13-8.217-4.124-13.424
		c0.006-5.208,1.631-9.912,4.88-14.113c3.246-4.201,7.803-7.566,13.674-10.095c5.867-2.529,12.663-3.792,20.394-3.784
		c3.861,0.004,7.623,0.319,11.28,0.944c3.655,0.625,7.104,1.528,10.347,2.703c3.24,1.177,6.31,2.698,9.207,4.564
		c2.895,1.867,5.653,4.043,8.273,6.53l-12.44,17.788l-1.244,1.654l-1.862-1.451c-0.137-1.103-0.447-2.139-0.928-3.106
		c-0.484-0.964-1.482-2.208-2.997-3.729c-2.76-1.934-5.792-3.319-9.104-4.15c-3.311-0.832-6.694-1.249-10.141-1.253
		c-4.279-0.005-8.042,0.605-11.284,1.824c-3.246,1.219-4.868,3.054-4.87,5.499c-0.002,1.604,0.79,3.038,2.376,4.308
		c1.584,1.269,4.066,2.443,7.448,3.514c3.379,1.071,7.689,2.279,12.933,3.618c7.863,1.746,14.243,3.956,19.14,6.633
		c4.893,2.677,8.512,5.883,10.856,9.625c2.34,3.741,3.509,8.08,3.504,13.019c-0.006,5.343-1.563,10.28-4.674,14.815
		c-3.11,4.537-7.636,8.168-13.571,10.898c-5.938,2.73-13.184,4.089-21.739,4.079C460.105,131.898,454.309,131.339,448.792,130.23z"
		/>
	<path class="st1" d="M552.292,130.347c-5.519-1.109-10.657-2.771-15.415-4.985c-4.759-2.211-9.07-5.186-12.927-8.916l10.994-20.687
		l0.83-1.655l1.862,1.037c0.273,0.967,0.651,2.038,1.134,3.21c0.481,1.174,1.55,2.521,3.204,4.04
		c3.584,2.902,7.653,5.151,12.205,6.741c4.552,1.593,9.794,2.391,15.73,2.398c3.447,0.004,6.381-0.333,8.798-1.009
		c2.414-0.676,4.313-1.661,5.696-2.953c1.379-1.292,2.073-2.682,2.075-4.163c0.002-1.469-0.446-2.737-1.341-3.805
		c-0.898-1.068-2.242-2.04-4.033-2.909c-1.794-0.869-4.07-1.741-6.828-2.611c-2.762-0.87-6.072-1.841-9.933-2.916
		c-7.035-1.742-13.107-3.919-18.208-6.528c-5.104-2.606-9.034-5.78-11.788-9.522c-2.757-3.742-4.13-8.217-4.124-13.424
		c0.006-5.208,1.631-9.912,4.88-14.113c3.246-4.201,7.804-7.566,13.674-10.095c5.867-2.529,12.663-3.792,20.394-3.784
		c3.861,0.004,7.623,0.319,11.28,0.944c3.655,0.625,7.104,1.528,10.347,2.703c3.24,1.178,6.31,2.698,9.207,4.564
		c2.895,1.867,5.653,4.043,8.273,6.53l-12.44,17.788l-1.244,1.654l-1.862-1.451c-0.137-1.103-0.447-2.139-0.928-3.106
		c-0.484-0.964-1.482-2.208-2.997-3.729c-2.76-1.934-5.792-3.319-9.104-4.15c-3.311-0.832-6.694-1.249-10.141-1.253
		c-4.279-0.005-8.042,0.605-11.284,1.824c-3.246,1.219-4.868,3.054-4.87,5.499c-0.002,1.604,0.789,3.038,2.376,4.308
		c1.583,1.269,4.066,2.443,7.448,3.514c3.379,1.071,7.689,2.279,12.933,3.618c7.863,1.746,14.243,3.956,19.14,6.633
		c4.893,2.677,8.512,5.883,10.856,9.625c2.341,3.741,3.509,8.08,3.504,13.019c-0.006,5.343-1.563,10.28-4.674,14.815
		c-3.11,4.537-7.636,8.168-13.571,10.898c-5.938,2.73-13.184,4.089-21.739,4.079C563.605,132.015,557.809,131.456,552.292,130.347z"
		/>
</g>
</svg>
