<?xml version="1.0" encoding="utf-8"?>
<!-- Generator: Adobe Illustrator 26.3.1, SVG Export Plug-In . SVG Version: 6.00 Build 0)  -->
<svg version="1.1" id="レイヤー_1" xmlns="http://www.w3.org/2000/svg" xmlns:xlink="http://www.w3.org/1999/xlink" x="0px"
	 y="0px" width="713px" height="166px" viewBox="0 0 713 166" style="enable-background:new 0 0 713 166;" xml:space="preserve">
<style type="text/css">
	.st0{opacity:0.24;}
	.st1{fill:#D4DBDE;}
</style>
<g class="st0">
	<path class="st1" d="M32.442,128.491c-6.281-2.584-11.835-6.53-16.664-11.838c-4.833-5.308-8.591-12.077-11.282-20.312
		C1.805,88.11,0.46,78.346,0.46,67.052c0-9.933,1.067-18.643,3.208-26.127c2.138-7.484,5.036-13.811,8.694-18.982
		c3.655-5.172,7.795-9.357,12.42-12.556c4.622-3.195,9.451-5.508,14.49-6.938c5.036-1.43,10.04-2.145,15.008-2.145
		c10.072,0,18.63,2.141,25.668,6.417C86.986,11,92.436,17.21,96.301,25.35l-16.146,14.49l-1.449,1.242l-1.449-1.656
		c0-1.103-0.139-2.206-0.414-3.312c-0.278-1.103-1.035-2.552-2.277-4.347c-2.624-3.034-5.454-5.071-8.487-6.106
		c-3.037-1.035-6.142-1.552-9.315-1.552c-3.037,0-6.142,0.844-9.315,2.532c-3.176,1.688-6.106,4.253-8.797,7.695
		c-2.691,3.444-4.865,7.798-6.521,13.063c-1.656,5.266-2.484,11.476-2.484,18.63c0,6.89,0.585,12.963,1.76,18.229
		c1.171,5.266,2.827,9.687,4.968,13.264c2.138,3.577,4.69,6.278,7.659,8.102c2.966,1.824,6.242,2.733,9.833,2.733
		c3.312,0,6.21-0.343,8.694-1.035c2.484-0.689,4.761-1.999,6.831-3.933c2.07-1.931,4.069-4.622,6.003-8.073l19.872,15.111
		c-5.246,8.419-11.385,14.18-18.423,17.285s-15.182,4.657-24.426,4.657C45.379,132.369,38.719,131.076,32.442,128.491z"/>
	<path class="st1" d="M150.535,131.748c-8.694,0-16.631-2.021-23.805-6.071c-7.177-4.046-12.905-9.784-17.181-17.216
		c-4.279-7.43-6.417-16.056-6.417-25.875c0-9.153,2.138-17.446,6.417-24.879c4.276-7.429,10.004-13.335,17.181-17.715
		c7.174-4.379,15.111-6.569,23.805-6.569s16.664,2.189,23.909,6.569c7.245,4.379,13.041,10.286,17.388,17.715
		c4.347,7.433,6.521,15.726,6.521,24.879c0,9.687-2.173,18.245-6.521,25.678c-4.347,7.433-10.143,13.203-17.388,17.317
		C167.198,129.695,159.229,131.748,150.535,131.748z M150.535,108.772c3.726,0,7.002-1.09,9.833-3.273
		c2.827-2.18,5.071-5.23,6.728-9.144c1.656-3.914,2.484-8.503,2.484-13.769c0-5.647-0.828-10.396-2.484-14.248
		c-1.656-3.849-3.901-6.802-6.728-8.856c-2.83-2.054-6.106-3.082-9.833-3.082c-3.451,0-6.592,1.028-9.418,3.082
		c-2.83,2.054-5.071,5.007-6.728,8.856c-1.656,3.852-2.484,8.6-2.484,14.248c0,5.266,0.792,9.855,2.38,13.769
		c1.585,3.914,3.794,6.964,6.624,9.144C143.736,107.681,146.945,108.772,150.535,108.772z"/>
	<path class="st1" d="M207.667,130.093V35.493h23.598v5.796c1.656-2.07,3.312-3.655,4.968-4.761c1.656-1.103,3.344-1.896,5.071-2.38
		c1.724-0.482,3.416-0.725,5.071-0.725c2.07,0,4.069,0.278,6.003,0.828c1.931,0.553,3.794,1.552,5.589,3.001
		c1.792,1.449,3.312,3.623,4.554,6.521c1.656-2.62,3.38-4.658,5.175-6.106c1.792-1.449,3.897-2.517,6.313-3.208
		c2.413-0.689,5.139-1.035,8.176-1.035c3.726,0,6.863,0.637,9.418,1.905c2.552,1.271,4.658,3.108,6.313,5.515
		c1.656,2.407,2.863,5.418,3.623,9.027c0.757,3.609,1.139,7.756,1.139,12.433v67.789h-24.633V67.456
		c0-3.047-0.104-5.534-0.311-7.456c-0.207-1.921-0.553-3.348-1.035-4.276c-0.485-0.928-1.277-1.394-2.38-1.394
		c-1.242,0-2.484,0.566-3.726,1.692s-2.245,2.917-3.001,5.369c-0.76,2.452-1.139,5.734-1.139,9.842v58.859h-22.563V67.627
		c0-5.702-0.346-9.483-1.035-11.34c-0.692-1.856-1.795-2.785-3.312-2.785c-1.106,0-2.106,0.333-3.002,0.996
		c-0.899,0.663-1.656,1.691-2.277,3.083c-0.621,1.394-1.106,3.118-1.449,5.171c-0.346,2.057-0.518,4.412-0.518,7.064v60.276H207.667
		z"/>
	<path class="st1" d="M314.272,164.661l-0.207-129.168h28.566v10.143c2.484-2.898,5.071-5.243,7.762-7.038
		c2.691-1.792,5.554-3.105,8.591-3.933c3.034-0.828,6.21-1.242,9.522-1.242c5.243,0,10.107,1.096,14.593,3.286
		c4.483,2.189,8.417,5.408,11.799,9.651c3.379,4.247,6.035,9.454,7.969,15.625c1.932,6.171,2.898,13.303,2.898,21.396
		c0,8.229-1.002,15.396-3.002,21.499c-2.002,6.103-4.76,11.146-8.279,15.124c-3.52,3.981-7.557,6.935-12.11,8.859
		c-4.554,1.921-9.315,2.885-14.283,2.885c-3.176,0-6.313-0.278-9.418-0.828c-3.105-0.553-5.971-1.414-8.591-2.587
		c-2.623-1.171-4.761-2.656-6.417-4.451v40.779H314.272z M358.984,110.22c2.898,0,5.45-0.514,7.659-1.543
		c2.206-1.028,4.104-2.639,5.692-4.829c1.585-2.187,2.795-5.149,3.623-8.882c0.828-3.732,1.242-8.302,1.242-13.71
		c0-5.278-0.725-9.849-2.173-13.71c-1.449-3.862-3.487-6.821-6.106-8.881c-2.624-2.061-5.729-3.092-9.315-3.092
		c-2.898,0-5.382,0.55-7.452,1.643c-2.07,1.093-3.726,2.769-4.968,5.02c-1.242,2.254-2.141,5.12-2.691,8.594
		c-0.553,3.477-0.828,7.598-0.828,12.359c0,3.732,0.171,7.047,0.518,9.946c0.343,2.898,0.896,5.408,1.656,7.529
		c0.757,2.125,1.724,3.895,2.898,5.311c1.171,1.417,2.62,2.478,4.347,3.186C354.808,109.868,356.775,110.22,358.984,110.22z"/>
	<path class="st1" d="M448.615,131.748c-10.489,0-18.701-2.452-24.633-7.361c-5.936-4.91-8.901-11.398-8.901-19.464
		c0-5.11,1.104-9.849,3.312-14.222c2.205-4.37,5.656-8.202,10.35-11.498c4.689-3.292,10.692-5.883,18.009-7.766
		c7.313-1.882,16.075-2.824,26.289-2.824c0.414,0,1.171,0,2.277,0c1.103,0,2.345,0,3.726,0c1.378,0,2.552,0,3.52,0l0.828,19.458
		c-0.828,0-2.003,0-3.52,0c-1.521,0-3.072,0.036-4.657,0.104c-1.588,0.071-2.795,0.104-3.623,0.104
		c-5.935,0-10.695,0.353-14.282,1.054c-3.591,0.705-6.313,1.663-8.177,2.879c-1.863,1.216-3.141,2.558-3.83,4.027
		c-0.691,1.472-1.034,2.911-1.034,4.314c0,1.536,0.274,2.878,0.827,4.03c0.551,1.151,1.311,2.044,2.277,2.684
		c0.964,0.641,2.138,1.119,3.52,1.439c1.378,0.32,2.826,0.479,4.347,0.479c3.312,0,6.139-0.514,8.487-1.542
		c2.345-1.029,4.312-2.73,5.899-5.107c1.585-2.377,2.759-5.431,3.519-9.16c0.757-3.726,1.139-8.29,1.139-13.688
		c0-6.553-0.656-11.566-1.967-15.037c-1.312-3.471-3.176-5.815-5.589-7.038c-2.416-1.223-5.35-1.834-8.797-1.834
		c-4.279,0-8.213,0.589-11.8,1.759c-3.59,1.174-7.384,3.83-11.385,7.97l-16.56-16.974c6.21-5.657,12.866-9.59,19.976-11.799
		c7.105-2.206,14.04-3.312,20.803-3.312c5.933,0,11.557,0.637,16.871,1.905c5.311,1.271,10.071,3.377,14.283,6.32
		c4.207,2.943,7.52,6.986,9.936,12.132c2.413,5.149,3.622,11.599,3.622,19.354v56.958h-29.601v-8.487
		c-1.795,1.656-3.555,3.141-5.278,4.45c-1.728,1.313-3.59,2.381-5.589,3.208c-2.002,0.828-4.176,1.449-6.521,1.863
		C454.34,131.542,451.65,131.748,448.615,131.748z"/>
	<path class="st1" d="M521.894,130.093V35.493h29.601v11.385c2.206-2.62,4.482-4.933,6.831-6.935c2.345-1.999,5-3.587,7.97-4.761
		c2.966-1.171,6.313-1.759,10.039-1.759c5.796,0,11.246,1.371,16.354,4.111c5.104,2.743,9.243,7.022,12.42,12.837
		c3.173,5.815,4.761,13.471,4.761,22.964v56.757h-29.394V74.028c0-4.24-0.414-7.785-1.242-10.635s-2.142-5.003-3.934-6.462
		c-1.795-1.456-4.071-2.187-6.831-2.187c-2.209,0-4.347,0.434-6.417,1.294c-2.069,0.86-3.9,2.086-5.485,3.677
		c-1.588,1.591-2.83,3.513-3.726,5.764c-0.899,2.254-1.346,4.774-1.346,7.556v57.058H521.894z"/>
	<path class="st1" d="M629.948,163.213c-3.59-1.656-7.384-4.004-11.385-7.038l9.314-20.079l0.621-1.656l2.07,0.828
		c0.55,0.964,1.103,1.999,1.656,3.105c0.55,1.103,1.724,2.345,3.519,3.726c0.828,0.55,1.76,0.964,2.795,1.242
		c1.034,0.275,2.102,0.414,3.208,0.414c2.206,0,4.14-0.615,5.796-1.84c1.656-1.232,3.241-3.138,4.761-5.722
		c1.518-2.587,3.105-6.013,4.762-10.279l22.77-59.477c2.07-5.492,3.655-10.68,4.761-15.57c1.104-4.89,1.656-10.014,1.656-15.373
		h26.289c-0.139,6.029-1.484,12.495-4.036,19.39c-2.556,6.899-5.004,13.361-7.349,19.39l-24.012,62.488
		c-4.141,10.715-9.04,18.216-14.697,22.504c-5.66,4.286-12.353,6.43-20.079,6.43C637.674,165.697,633.534,164.868,629.948,163.213z
		 M620.839,35.493h28.773l26.703,67.916l-15.939,28.53L620.839,35.493z"/>
</g>
</svg>
