<?xml version="1.0" encoding="utf-8"?>
<!-- Generator: Adobe Illustrator 26.3.1, SVG Export Plug-In . SVG Version: 6.00 Build 0)  -->
<svg version="1.1" id="レイヤー_1" xmlns="http://www.w3.org/2000/svg" xmlns:xlink="http://www.w3.org/1999/xlink" x="0px"
	 y="0px" width="711px" height="133px" viewBox="0 0 711 133" style="enable-background:new 0 0 711 133;" xml:space="preserve">
<style type="text/css">
	.st0{opacity:0.24;}
	.st1{fill:#D4DBDE;}
</style>
<g class="st0">
	<path class="st1" d="M32.373,128.649c-6.21-2.587-11.73-6.54-16.56-11.857c-4.832-5.314-8.591-12.093-11.281-20.341
		c-2.691-8.245-4.037-18.022-4.037-29.336c0-9.949,1.067-18.672,3.209-26.169c2.138-7.494,5-13.797,8.59-18.908
		c3.587-5.11,7.659-9.27,12.213-12.472c4.555-3.202,9.315-5.521,14.283-6.951c4.968-1.429,9.865-2.147,14.697-2.147
		c9.936,0,18.388,2.173,25.357,6.521c6.967,4.347,12.316,10.593,16.043,18.733L79.569,38.348L78.12,39.59l-1.449-1.656
		c0.136-1.103,0.068-2.174-0.207-3.208c-0.277-1.035-1.034-2.449-2.276-4.244c-2.763-3.448-5.729-5.725-8.901-6.831
		c-3.176-1.103-6.417-1.656-9.729-1.656c-3.591,0-7.074,0.916-10.454,2.743c-3.383,1.831-6.452,4.573-9.211,8.231
		c-2.763,3.658-4.969,8.231-6.624,13.717c-1.656,5.485-2.484,11.954-2.484,19.406c0,7.18,0.653,13.517,1.967,19.002
		c1.31,5.485,3.137,10.159,5.485,14.021c2.345,3.862,5.14,6.773,8.384,8.736c3.24,1.966,6.795,2.946,10.66,2.946
		c3.312,0,6.278-0.414,8.901-1.242c2.619-0.828,5.035-2.241,7.244-4.243c2.206-1.999,4.276-4.726,6.211-8.177l18.216,13.455
		c-5.107,8.144-11.042,13.837-17.803,17.078c-6.763,3.241-14.696,4.864-23.805,4.864C45.207,132.533,38.583,131.236,32.373,128.649z
		"/>
	<path class="st1" d="M149.949,131.912c-8.694,0-16.56-2.038-23.598-6.119c-7.038-4.079-12.627-9.829-16.768-17.255
		c-4.14-7.426-6.21-16.02-6.21-25.788c0-9.231,2.07-17.556,6.21-24.982c4.141-7.423,9.729-13.31,16.768-17.657
		c7.038-4.347,14.903-6.523,23.598-6.523s16.593,2.177,23.701,6.523c7.106,4.347,12.764,10.234,16.975,17.657
		c4.208,7.426,6.313,15.751,6.313,24.982c0,9.632-2.105,18.161-6.313,25.584c-4.211,7.426-9.868,13.212-16.975,17.359
		C166.542,129.839,158.644,131.912,149.949,131.912z M149.949,111.005c4.14,0,7.763-1.177,10.867-3.532
		c3.105-2.355,5.554-5.657,7.349-9.907c1.792-4.25,2.691-9.189,2.691-14.816c0-6.016-0.899-11.12-2.691-15.305
		c-1.795-4.186-4.243-7.387-7.349-9.613c-3.104-2.225-6.728-3.338-10.867-3.338c-3.865,0-7.349,1.113-10.453,3.338
		c-3.105,2.226-5.557,5.427-7.349,9.613c-1.795,4.185-2.691,9.289-2.691,15.305c0,5.627,0.896,10.566,2.691,14.816
		c1.792,4.25,4.243,7.552,7.349,9.907C142.601,109.828,146.084,111.005,149.949,111.005z"/>
	<path class="st1" d="M212.049,130.256V35.657h26.496v12.42c2.346-2.898,4.762-5.414,7.245-7.555
		c2.484-2.138,5.312-3.83,8.487-5.072c3.173-1.242,6.691-1.863,10.557-1.863c5.657,0,10.972,1.345,15.939,4.037
		c4.968,2.691,8.969,6.963,12.006,12.814c3.034,5.854,4.554,13.487,4.554,22.906v56.912h-26.496V73.907
		c0-4.677-0.484-8.555-1.448-11.631c-0.968-3.073-2.416-5.347-4.348-6.818c-1.934-1.468-4.347-2.206-7.245-2.206
		c-2.483,0-4.864,0.469-7.142,1.404c-2.276,0.938-4.314,2.306-6.106,4.111c-1.795,1.805-3.244,3.946-4.347,6.417
		c-1.106,2.474-1.656,5.314-1.656,8.522v56.55H212.049z"/>
	<path class="st1" d="M316.791,35.657h76.176l-0.413,20.7h-76.177L316.791,35.657z M353.12,129.486
		c-4.212-1.617-7.73-4.347-10.558-8.189c-2.83-3.843-4.936-8.998-6.313-15.47c-1.381-6.469-1.862-14.558-1.449-24.264l2.898-68.349
		l26.91-3.435l1.863-0.204l0.207,2.212c-0.554,0.941-1.106,1.882-1.656,2.82c-0.554,0.938-0.899,2.549-1.035,4.829l-2.484,29.181
		l1.242,0.805l-1.656,30.791c-0.414,8.187-0.104,14.526,0.932,19.019c1.035,4.496,2.588,7.581,4.658,9.256
		c2.069,1.679,4.414,2.517,7.037,2.517c4.276,0,8.177-0.896,11.696-2.691c3.519-1.792,6.728-3.862,9.625-6.21l4.968,18.837
		c-4.692,3.451-9.729,6.142-15.11,8.073c-5.382,1.931-11.249,2.898-17.596,2.898C362.053,131.912,357.328,131.103,353.12,129.486z"
		/>
	<path class="st1" d="M448.857,131.912c-10.489,0-18.701-2.461-24.633-7.384c-5.936-4.923-8.901-11.362-8.901-19.319
		c0-5.124,1.139-9.81,3.415-14.06c2.277-4.247,5.726-7.989,10.351-11.227c4.622-3.234,10.453-5.764,17.491-7.584
		s15.247-2.733,24.633-2.733c0.828,0,1.932,0.036,3.312,0.104c1.378,0.071,2.897,0.104,4.554,0.104s3.173,0.071,4.554,0.207
		l0.621,17.802c-1.105-0.136-2.52-0.207-4.243-0.207c-1.728,0-3.486,0-5.278,0c-1.795,0-3.244,0-4.348,0
		c-5.796,0-10.524,0.359-14.179,1.074c-3.658,0.718-6.557,1.728-8.694,3.027c-2.142,1.3-3.622,2.798-4.45,4.49
		c-0.828,1.691-1.242,3.512-1.242,5.466c0,1.691,0.311,3.222,0.932,4.586c0.621,1.368,1.481,2.41,2.587,3.125
		c1.104,0.718,2.449,1.271,4.037,1.659c1.585,0.391,3.276,0.585,5.071,0.585c3.726,0,6.967-0.585,9.729-1.763
		c2.76-1.174,5.072-3.034,6.935-5.58c1.863-2.542,3.241-5.806,4.141-9.787c0.896-3.978,1.346-8.71,1.346-14.196
		c0-7.177-0.761-12.659-2.277-16.443c-1.521-3.784-3.658-6.395-6.417-7.831c-2.763-1.436-6.21-2.154-10.351-2.154
		c-4.278,0-8.315,0.656-12.109,1.966c-3.797,1.313-7.626,3.969-11.488,7.97l-14.697-15.525c5.797-5.382,12.11-9.176,18.94-11.385
		c6.831-2.206,13.627-3.312,20.39-3.312c5.933,0,11.557,0.673,16.871,2.018c5.311,1.346,10.004,3.532,14.076,6.56
		c4.068,3.027,7.277,7.2,9.625,12.514c2.345,5.314,3.52,11.941,3.52,19.878v55.699h-26.91v-9.936
		c-1.795,2.07-3.623,3.865-5.485,5.382c-1.863,1.521-3.901,2.727-6.107,3.623c-2.209,0.899-4.554,1.553-7.037,1.967
		C454.653,131.705,451.891,131.912,448.857,131.912z"/>
	<path class="st1" d="M549.77,128.409c-6.142-2.335-11.488-5.673-16.042-10.014c-4.555-4.337-8.073-9.444-10.558-15.318
		c-2.483-5.874-3.726-12.349-3.726-19.426c0-6.941,1.242-13.452,3.726-19.526c2.484-6.074,6.003-11.379,10.558-15.92
		c4.554-4.538,9.9-8.108,16.042-10.712c6.139-2.604,12.799-3.907,19.976-3.907c9.244,0,17.249,1.656,24.012,4.968
		c6.761,3.312,12.143,8.005,16.146,14.076L595.62,68.363l-1.449,1.449l-1.655-1.242c-0.14-1.103-0.311-2.241-0.518-3.416
		c-0.207-1.171-1.003-2.655-2.381-4.45c-2.484-2.484-5.278-4.172-8.384-5.072c-3.104-0.896-6.659-1.346-10.66-1.346
		c-3.312,0-6.417,0.654-9.315,1.957c-2.897,1.303-5.521,3.192-7.865,5.67c-2.349,2.478-4.176,5.543-5.485,9.192
		c-1.313,3.652-1.967,7.889-1.967,12.714c0,4.172,0.688,7.989,2.069,11.443c1.378,3.454,3.209,6.323,5.486,8.604
		c2.276,2.283,4.896,4.043,7.865,5.282c2.967,1.239,6.036,1.856,9.212,1.856c2.898,0,5.692-0.378,8.384-1.139
		c2.69-0.757,5.382-1.999,8.072-3.726c2.691-1.724,5.279-4.104,7.763-7.141l14.283,16.56c-5.246,5.796-11.421,9.971-18.526,12.523
		c-7.109,2.552-14.111,3.829-21.011,3.829C562.5,131.912,555.908,130.741,549.77,128.409z"/>
	<path class="st1" d="M627.291,35.657h76.176l-0.413,20.7h-76.177L627.291,35.657z M663.62,129.486
		c-4.212-1.617-7.73-4.347-10.558-8.189c-2.83-3.843-4.936-8.998-6.313-15.47c-1.381-6.469-1.862-14.558-1.449-24.264l2.898-68.349
		l26.91-3.435l1.863-0.204l0.207,2.212c-0.554,0.941-1.106,1.882-1.656,2.82c-0.554,0.938-0.899,2.549-1.035,4.829l-2.484,29.181
		l1.242,0.805l-1.656,30.791c-0.414,8.187-0.104,14.526,0.932,19.019c1.035,4.496,2.588,7.581,4.658,9.256
		c2.069,1.679,4.414,2.517,7.037,2.517c4.276,0,8.177-0.896,11.696-2.691c3.519-1.792,6.728-3.862,9.625-6.21l4.968,18.837
		c-4.692,3.451-9.729,6.142-15.11,8.073c-5.382,1.931-11.249,2.898-17.596,2.898C672.553,131.912,667.828,131.103,663.62,129.486z"
		/>
</g>
</svg>
