<?xml version="1.0" encoding="utf-8"?>
<!-- Generator: Adobe Illustrator 26.3.1, SVG Export Plug-In . SVG Version: 6.00 Build 0)  -->
<svg version="1.1" id="レイヤー_1" xmlns="http://www.w3.org/2000/svg" xmlns:xlink="http://www.w3.org/1999/xlink" x="0px"
	 y="0px" width="668px" height="52px" viewBox="0 0 668 52" style="enable-background:new 0 0 668 52;" xml:space="preserve">
<style type="text/css">
	.st0{fill:#F0F2F4;}
</style>
<g>
	<path class="st0" d="M13.036,39.272c2.184,3.752,6.104,5.32,11.816,5.544c6.72,0.28,19.936,0.112,27.664-0.504
		c-0.784,1.568-1.736,4.648-2.072,6.496c-6.944,0.336-18.816,0.448-25.648,0.168c-6.664-0.28-11.144-1.904-14.504-6.216
		c-2.24,2.184-4.536,4.312-7.392,6.72l-3.136-6.608c2.184-1.4,4.704-3.248,6.944-5.152V27.512H0.436v-6.104h12.6V39.272z
		 M9.06,14.184c-1.568-2.744-5.264-6.608-8.4-9.296L5.756,1.08c3.136,2.52,7,6.216,8.792,8.904L9.06,14.184z M18.916,19.224
		c-1.008,1.064-2.016,2.016-3.024,2.912c-1.008-1.344-3.472-4.032-4.872-5.264c5.152-3.92,9.8-10.36,12.376-17.024l6.608,1.904
		c-0.84,2.016-1.792,3.976-2.856,5.936h6.384c0.952-2.464,1.792-5.208,2.352-7.392l7.336,1.4c-1.008,2.016-2.016,4.088-3.024,5.992
		h9.912v5.6H38.964v3.528h9.632v5.376h-9.632v3.696h9.408v5.376h-9.408v3.808H51.06v5.6H18.916V19.224z M32.636,13.288h-7.28v3.528
		h7.28V13.288z M32.636,22.192h-7.28v3.696h7.28V22.192z M32.636,31.264h-7.28v3.808h7.28V31.264z"/>
	<path class="st0" d="M76.708,2.592c-1.624,3.808-3.584,7.616-5.824,11.312v37.968H64.22v-28.56c-1.792,2.184-3.696,4.2-5.544,5.936
		c-0.728-1.68-2.632-5.376-3.864-7.056C60.86,17.096,66.74,8.864,70.1,0.408L76.708,2.592z M98.94,45.096
		c2.688,0,3.136-1.904,3.584-9.8c1.568,1.176,4.368,2.464,6.16,2.856c-0.784,9.632-2.52,13.16-9.128,13.16H89.98
		c-7.056,0-9.072-2.24-9.072-10.136V1.136h6.72v19.152c5.264-3.024,10.416-6.608,14.112-9.8l4.928,5.824
		c-5.544,3.92-12.488,7.672-19.04,10.808v14.112c0,3.304,0.392,3.864,3.08,3.864H98.94z"/>
	<path class="st0" d="M146.316,6.792c0,0.448,0,1.064-0.056,1.736c5.656,0,13.328-0.112,16.24-0.056l-0.056,6.608
		c-3.36-0.168-8.568-0.28-16.184-0.28c0,2.856,0.056,5.936,0.056,8.4c1.344,2.128,2.016,4.76,2.016,7.672
		c0,7.28-4.256,16.576-17.92,20.384l-5.992-5.936c5.656-1.176,10.584-3.024,13.664-6.384c-0.784,0.168-1.624,0.28-2.52,0.28
		c-4.312,0-9.632-3.472-9.632-10.304c0-6.328,5.096-10.472,11.2-10.472c0.784,0,1.512,0.056,2.24,0.168c0-1.232,0-2.52-0.056-3.752
		c-8.456,0.112-17.192,0.448-24.08,0.84l-0.168-6.776c6.384,0,16.576-0.224,24.192-0.336c-0.056-0.728-0.056-1.288-0.112-1.736
		c-0.168-2.296-0.392-4.2-0.56-4.872h8.12C146.596,2.872,146.372,5.896,146.316,6.792z M136.964,33c2.352,0,4.424-1.792,3.64-6.72
		c-0.784-1.288-2.128-1.96-3.64-1.96c-2.184,0-4.312,1.512-4.312,4.48C132.652,31.376,134.724,33,136.964,33z"/>
	<path class="st0" d="M183.556,4.72c2.968,0,14.952-0.224,18.144-0.504c2.296-0.224,3.584-0.392,4.256-0.616l3.64,4.984
		c-1.288,0.84-2.632,1.624-3.92,2.576c-3.024,2.128-8.904,7.056-12.432,9.856c1.848-0.448,3.528-0.616,5.32-0.616
		c9.52,0,16.744,5.936,16.744,14.112c0,8.848-6.72,15.848-20.272,15.848c-7.784,0-13.664-3.584-13.664-9.184
		c0-4.536,4.088-8.736,10.024-8.736c6.944,0,11.144,4.256,11.928,9.576c3.08-1.624,4.648-4.2,4.648-7.616
		c0-5.04-5.04-8.456-11.648-8.456c-8.568,0-14.168,4.536-20.16,11.368l-5.096-5.264c3.976-3.192,10.752-8.904,14.056-11.648
		c3.136-2.576,8.96-7.28,11.704-9.688c-2.856,0.056-10.584,0.392-13.552,0.56c-1.512,0.112-3.304,0.28-4.592,0.448l-0.224-7.28
		C180.028,4.664,181.988,4.72,183.556,4.72z M193.636,43.976c1.176,0,2.24-0.056,3.248-0.168c-0.336-3.64-2.408-5.992-5.432-5.992
		c-2.128,0-3.472,1.288-3.472,2.688C187.98,42.576,190.276,43.976,193.636,43.976z"/>
	<path class="st0" d="M275.788,49.688h-42.336v2.352h-6.664V2.256H274.5V8.64h-30.296l5.096,1.288
		c-0.392,1.064-0.896,2.072-1.456,3.08h22.904v5.544h-12.992v4.144h15.456v5.712h-14.728c2.968,4.368,8.288,7.056,15.736,8.064
		c-1.456,1.344-3.192,3.808-3.976,5.544c-6.944-1.4-11.816-4.312-15.232-8.736c-2.576,3.472-7.28,6.664-15.344,8.96
		c-0.84-1.4-2.744-3.696-4.088-4.928c9.52-2.24,13.328-5.544,14.784-8.904h-14.28v-5.712h15.064v-4.144h-6.944
		c-1.064,1.344-2.184,2.52-3.304,3.528c-1.288-0.952-4.032-2.52-5.544-3.248c3.304-2.408,6.16-6.328,7.616-10.192h-9.52v34.72
		h42.336V49.688z"/>
	<path class="st0" d="M314.82,39.832c4.648,2.912,11.032,5.152,17.472,6.272c-1.288,1.288-3.08,3.64-3.92,5.264
		c-7.112-1.624-14-5.04-18.984-9.464v10.024h-6.552V41.736c-5.04,4.424-11.984,8.008-18.816,9.856
		c-0.896-1.568-2.688-3.92-3.976-5.152c5.88-1.288,12.04-3.696,16.632-6.608h-15.4v-5.6h21.56v-2.464H295.5V13.344h6.384
		c0.504-1.4,1.008-2.856,1.288-4.032l6.496,1.008c-0.504,1.064-1.008,2.072-1.456,3.024h8.848v11.76l2.968-3.192
		c3.472,1.848,8.512,4.704,11.032,6.664l-4.032,4.536c-2.128-1.792-6.496-4.648-9.968-6.608v5.264h-7.672v2.464h21.616v5.6H314.82z
		 M295.22,27.512c-3.864,1.904-8.064,3.92-11.536,5.544l-2.632-5.6c3.304-1.12,8.064-3.192,12.824-5.208L295.22,27.512z
		 M293.092,8.472h-11.816v-5.6h11.816v-3.136h6.608v3.136h12.824v-3.136h6.664v3.136h11.984v5.6h-11.984v3.64h-6.664v-3.64H299.7
		v3.64h-6.608V8.472z M286.988,11.44c2.576,2.128,5.544,5.152,6.888,7.392l-5.152,3.64c-1.176-2.184-4.032-5.432-6.608-7.672
		L286.988,11.44z M310.9,17.656h-9.52v2.856h9.52V17.656z M301.38,27.456h9.52v-2.912h-9.52V27.456z M317.788,19.168
		c2.184-2.072,4.984-5.376,6.608-7.896l5.768,2.744c-2.296,2.856-5.04,5.768-7.224,7.672L317.788,19.168z"/>
	<path class="st0" d="M338.228,26.784h21.28v24.92h-6.664v-2.52H344.5v2.8h-6.272V26.784z M344.5,33.168V42.8h8.344v-9.632H344.5z
		 M378.716,22.136H345.9V1.864h32.816V22.136z M371.94,8.248h-19.6v7.56h19.6V8.248z M386.276,26.784V51.76h-6.72v-2.576h-8.904v2.8
		h-6.384v-25.2H386.276z M379.556,42.8v-9.632h-8.904V42.8H379.556z"/>
	<path class="st0" d="M420.716,49.744l-4.2-6.664c2.128-0.224,3.696-0.56,5.208-0.896c7.168-1.68,12.768-6.832,12.768-15.008
		c0-7.728-4.2-13.496-11.76-14.784c-0.784,4.76-1.736,9.912-3.36,15.176c-3.359,11.312-8.176,18.256-14.279,18.256
		c-6.216,0-11.368-6.832-11.368-16.296c0-12.936,11.2-23.968,25.704-23.968c13.888,0,22.624,9.632,22.624,21.84
		C442.052,39.216,434.828,47.56,420.716,49.744z M405.316,37.2c2.353,0,4.536-3.528,6.832-11.088
		c1.288-4.144,2.353-8.904,2.968-13.552c-9.239,1.904-14.224,10.08-14.224,16.24C400.892,34.456,403.132,37.2,405.316,37.2z"/>
	<path class="st0" d="M465.18,4.44c2.408,0,12.936-0.504,16.352-0.84c1.792-0.224,3.08-0.448,3.864-0.728l4.424,5.152
		c-1.176,0.784-3.248,2.128-4.424,3.08c-3.976,3.192-9.464,7.84-13.328,10.808c7.504-0.728,16.8-1.344,23.632-1.344v6.608
		c-5.376-0.28-10.976-0.336-14.392,0.168c-5.152,0.672-9.408,4.312-9.408,8.904c0,4.424,3.472,6.16,8.456,6.72
		c3.136,0.336,6.44,0.336,8.568,0.168l-1.513,7.336c-14.336,0.616-22.68-3.696-22.68-13.048c0-3.416,1.96-6.888,4.088-8.848
		c-5.151,0.448-11.424,1.288-17.023,2.24l-0.672-6.776c2.968-0.28,6.888-0.784,9.855-1.12c4.984-3.248,12.264-9.632,15.736-12.712
		c-2.296,0.168-9.185,0.504-11.48,0.728c-1.399,0.112-3.248,0.28-5.04,0.504l-0.336-7.168C461.652,4.384,463.276,4.44,465.18,4.44z"
		/>
	<path class="st0" d="M532.716,49.744l-4.2-6.664c2.128-0.224,3.696-0.56,5.208-0.896c7.168-1.68,12.768-6.832,12.768-15.008
		c0-7.728-4.2-13.496-11.76-14.784c-0.784,4.76-1.736,9.912-3.36,15.176c-3.359,11.312-8.176,18.256-14.279,18.256
		c-6.216,0-11.368-6.832-11.368-16.296c0-12.936,11.2-23.968,25.704-23.968c13.888,0,22.624,9.632,22.624,21.84
		C554.052,39.216,546.828,47.56,532.716,49.744z M517.316,37.2c2.353,0,4.536-3.528,6.832-11.088
		c1.288-4.144,2.353-8.904,2.968-13.552c-9.239,1.904-14.224,10.08-14.224,16.24C512.892,34.456,515.132,37.2,517.316,37.2z"/>
	<path class="st0" d="M603.332,44.872c1.681,0,2.017-1.064,2.24-7.672c1.344,1.12,4.256,2.24,6.048,2.688
		c-0.672,8.848-2.464,11.256-7.672,11.256h-6.496c-6.271,0-7.728-2.072-7.728-8.4V29.136h-8.176
		c-1.232,9.968-4.088,18.312-16.968,23.184c-0.784-1.792-2.633-4.48-4.145-5.88c11.145-3.64,13.272-9.912,14.112-17.304h-13.216
		v-6.44h21.447v-9.072h-9.632c-1.288,2.856-2.744,5.544-4.312,7.616c-1.513-0.952-4.312-2.296-5.88-2.912
		c3.64-4.592,6.271-12.152,7.447-17.864l6.832,1.344c-0.504,1.736-1.063,3.528-1.68,5.432h7.224v-7.56h6.776v7.56h17.191v6.384
		h-17.191v9.072h21.56v6.44h-14.672v13.608c0,1.848,0.28,2.128,2.016,2.128H603.332z"/>
	<path class="st0" d="M620.972,26.056c2.576-2.688,6.888-8.456,10.36-12.488c3.92-4.424,7.56-4.816,11.647-0.84
		c3.808,3.696,8.288,9.464,11.592,13.048c3.584,3.92,8.344,8.96,13.664,13.72l-5.768,6.72c-4.032-3.808-8.792-9.24-12.32-13.384
		c-3.472-4.144-7.672-9.464-10.304-12.432c-1.96-2.184-3.024-1.904-4.648,0.168c-2.24,2.8-6.216,8.344-8.624,11.536
		c-1.288,1.848-2.575,3.864-3.527,5.32l-6.832-7C617.892,29.136,619.292,27.848,620.972,26.056z"/>
</g>
</svg>
