<?xml version="1.0" encoding="utf-8"?>
<!-- Generator: Adobe Illustrator 26.3.1, SVG Export Plug-In . SVG Version: 6.00 Build 0)  -->
<svg version="1.1" id="レイヤー_1" xmlns="http://www.w3.org/2000/svg" xmlns:xlink="http://www.w3.org/1999/xlink" x="0px"
	 y="0px" width="399px" height="131px" viewBox="0 0 399 131" style="enable-background:new 0 0 399 131;" xml:space="preserve">
<style type="text/css">
	.st0{opacity:0.24;}
	.st1{fill:#D4DBDE;}
</style>
<g class="st0">
	<path class="st1" d="M0.47,0.192h27.945L68.78,81.543L67.124,0.192h23.184h1.863v2.07c-0.692,0.828-1.139,1.727-1.346,2.691
		c-0.207,0.967-0.311,2.623-0.311,4.968v119.232H65.468l-41.4-86.733v86.733H0.47V0.192z"/>
	<path class="st1" d="M153.236,130.808c-6.902,0-13.319-1.103-19.251-3.302c-5.935-2.203-11.075-5.372-15.422-9.512
		c-4.347-4.14-7.762-9.211-10.246-15.221c-2.484-6.006-3.726-12.815-3.726-20.425c0-7.743,1.207-14.716,3.623-20.926
		c2.413-6.207,5.692-11.447,9.833-15.719c4.14-4.272,9.004-7.542,14.593-9.813s11.625-3.406,18.112-3.406
		c5.657,0,11.003,0.98,16.043,2.94c5.036,1.96,9.522,4.897,13.455,8.814c3.933,3.917,7.038,8.778,9.315,14.587
		c2.277,5.809,3.416,12.494,3.416,20.056c0,1.488,0,3.312,0,5.473s-0.071,3.985-0.207,5.469h-62.721
		c0.275,3.513,1.139,6.553,2.587,9.121c1.449,2.568,3.312,4.7,5.589,6.391c2.277,1.691,4.829,2.943,7.659,3.758
		c2.827,0.815,5.692,1.223,8.59,1.223s5.622-0.239,8.177-0.725c2.552-0.482,5.036-1.346,7.452-2.587
		c2.413-1.242,4.725-3.034,6.934-5.382l13.248,13.041c-3.176,3.726-6.695,6.799-10.557,9.212c-3.865,2.416-8.041,4.175-12.524,5.278
		C162.722,130.256,158.065,130.808,153.236,130.808z M130.259,70.157h37.467c0-2.83-0.381-5.34-1.138-7.526
		c-0.76-2.187-1.935-3.988-3.519-5.405c-1.588-1.417-3.487-2.477-5.693-3.186c-2.209-0.708-4.761-1.064-7.659-1.064
		c-2.484,0-4.832,0.323-7.038,0.967c-2.209,0.644-4.176,1.672-5.899,3.089c-1.727,1.417-3.141,3.218-4.244,5.405
		C131.43,64.624,130.673,67.198,130.259,70.157z"/>
	<path class="st1" d="M219.476,129.153l-17.181-94.599h22.563l9.522,61.046l13.041-49.661h13.248l14.696,49.052
		c0.965-7.814,1.793-14.587,2.484-20.315c0.689-5.725,1.172-10.645,1.449-14.755c0.275-4.107,0.482-7.678,0.621-10.712
		c0.137-3.031,0.207-5.829,0.207-8.39v-6.265h21.941c-0.553,9.839-1.588,20.215-3.104,31.128
		c-1.521,10.916-3.244,21.796-5.176,32.645c-1.934,10.848-3.797,21.124-5.59,30.827h-22.562l-12.006-47.904l-11.178,47.904H219.476z
		"/>
	<path class="st1" d="M341.191,129.153c-5.521-1.103-10.66-2.759-15.421-4.968c-4.762-2.206-9.076-5.175-12.938-8.901l10.971-20.7
		l0.828-1.656l1.863,1.035c0.274,0.967,0.653,2.038,1.138,3.208c0.482,1.174,1.553,2.52,3.209,4.037
		c3.587,2.898,7.659,5.143,12.213,6.728c4.554,1.588,9.797,2.38,15.732,2.38c3.447,0,6.381-0.34,8.797-1.019
		c2.413-0.679,4.312-1.666,5.692-2.959c1.378-1.293,2.07-2.685,2.07-4.166c0-1.469-0.449-2.736-1.346-3.804
		c-0.899-1.067-2.244-2.038-4.036-2.905c-1.795-0.867-4.072-1.737-6.831-2.604c-2.763-0.867-6.074-1.834-9.937-2.904
		c-7.037-1.734-13.111-3.904-18.216-6.508c-5.106-2.6-9.04-5.77-11.799-9.509c-2.762-3.739-4.14-8.212-4.14-13.419
		c0-5.208,1.62-9.914,4.864-14.118c3.241-4.205,7.795-7.575,13.662-10.111c5.864-2.536,12.659-3.807,20.39-3.807
		c3.861,0,7.623,0.311,11.281,0.932c3.655,0.621,7.105,1.52,10.35,2.691c3.241,1.174,6.313,2.691,9.212,4.554
		c2.897,1.863,5.657,4.037,8.28,6.521l-12.42,17.802l-1.242,1.656l-1.863-1.449c-0.139-1.103-0.449-2.138-0.932-3.105
		c-0.485-0.964-1.484-2.206-3.001-3.726c-2.763-1.931-5.796-3.312-9.108-4.14c-3.312-0.828-6.695-1.242-10.143-1.242
		c-4.279,0-8.041,0.614-11.282,1.837c-3.244,1.223-4.864,3.06-4.864,5.505c0,1.604,0.793,3.037,2.381,4.305
		c1.585,1.268,4.068,2.438,7.452,3.506c3.38,1.067,7.691,2.271,12.938,3.603c7.865,1.737,14.247,3.939,19.147,6.611
		c4.896,2.671,8.519,5.874,10.867,9.612c2.345,3.739,3.519,8.076,3.519,13.015c0,5.343-1.552,10.282-4.657,14.82
		c-3.104,4.541-7.627,8.177-13.559,10.913c-5.935,2.736-13.18,4.104-21.734,4.104C352.506,130.808,346.71,130.256,341.191,129.153z"
		/>
</g>
</svg>
