<?xml version="1.0" encoding="utf-8"?>
<!-- Generator: Adobe Illustrator 26.3.1, SVG Export Plug-In . SVG Version: 6.00 Build 0)  -->
<svg version="1.1" id="レイヤー_1" xmlns="http://www.w3.org/2000/svg" xmlns:xlink="http://www.w3.org/1999/xlink" x="0px"
	 y="0px" width="707px" height="181px" viewBox="0 0 707 181" style="enable-background:new 0 0 707 181;" xml:space="preserve">
<style type="text/css">
	.st0{opacity:0.4;}
	.st1{fill:#FFFFFF;}
</style>
<g class="st0">
	<path class="st1" d="M0.255,145.148V16.187h44.919c10.072,0,18.388,1.727,24.944,5.175c6.553,3.451,11.453,8.073,14.697,13.869
		c3.241,5.796,4.865,12.213,4.865,19.251c0,5.107-0.899,9.936-2.691,14.49c-1.795,4.554-4.486,8.558-8.073,12.006
		c-3.59,3.451-8.109,6.142-13.559,8.073c-5.453,1.934-11.834,2.898-19.147,2.898H26.958v53.199H0.255z M26.958,70.421h17.595
		c3.726,0,6.935-0.689,9.626-2.07c2.691-1.378,4.793-3.276,6.313-5.692c1.517-2.413,2.277-5.208,2.277-8.384
		c0-3.173-0.76-5.932-2.277-8.28c-1.521-2.345-3.59-4.172-6.21-5.486c-2.623-1.31-5.796-1.966-9.522-1.966H26.958V70.421z"/>
	<path class="st1" d="M111,50.549h27.117l-0.207,27.117l-2.898-1.449c0.414-4.14,1.517-7.898,3.312-11.281
		c1.792-3.38,4.104-6.313,6.935-8.797c2.827-2.484,5.932-4.379,9.315-5.693c3.38-1.31,6.864-1.966,10.454-1.966
		c5.518,0,10.486,0.899,14.904,2.691c4.415,1.795,8.487,4.625,12.213,8.487l-10.971,22.356l-0.621,1.656l-2.07-0.828
		c-0.414-1.103-0.795-2.277-1.139-3.519c-0.346-1.242-1.277-2.691-2.794-4.347c-1.934-1.378-4.004-2.552-6.21-3.519
		c-2.209-0.964-4.625-1.449-7.245-1.449c-3.312,0-6.384,0.501-9.211,1.504c-2.83,1.003-5.278,2.571-7.348,4.709
		c-2.07,2.138-3.726,4.842-4.968,8.115c-1.242,3.273-1.863,7.245-1.863,11.922v48.891H111V50.549z"/>
	<path class="st1" d="M249.69,146.804c-8.694,0-16.56-2.038-23.598-6.119c-7.038-4.079-12.627-9.829-16.767-17.255
		c-4.14-7.426-6.21-16.02-6.21-25.788c0-9.231,2.07-17.556,6.21-24.982c4.14-7.423,9.729-13.31,16.767-17.657
		c7.038-4.347,14.904-6.523,23.598-6.523s16.592,2.177,23.702,6.523c7.106,4.347,12.763,10.234,16.974,17.657
		c4.208,7.426,6.314,15.751,6.314,24.982c0,9.632-2.106,18.161-6.314,25.584c-4.211,7.426-9.868,13.212-16.974,17.359
		C266.282,144.731,258.384,146.804,249.69,146.804z M249.69,125.897c4.14,0,7.763-1.177,10.868-3.532
		c3.105-2.355,5.553-5.657,7.348-9.907c1.792-4.25,2.691-9.189,2.691-14.816c0-6.016-0.899-11.12-2.691-15.305
		c-1.795-4.186-4.243-7.387-7.348-9.613c-3.105-2.225-6.728-3.338-10.868-3.338c-3.865,0-7.349,1.113-10.454,3.338
		c-3.105,2.226-5.557,5.427-7.348,9.613c-1.795,4.185-2.691,9.289-2.691,15.305c0,5.627,0.896,10.566,2.691,14.816
		c1.792,4.25,4.243,7.552,7.348,9.907C242.341,124.72,245.824,125.897,249.69,125.897z"/>
	<path class="st1" d="M322.76,176.922c-5.382-2.555-10.35-6.313-14.904-11.281l14.283-18.837l1.242-1.449l1.863,1.035
		c0.275,1.103,0.518,2.241,0.724,3.416c0.207,1.17,1,2.655,2.381,4.45c1.656,1.517,3.483,2.724,5.485,3.623
		c1.999,0.896,4.379,1.346,7.142,1.346c3.312,0,6.003-0.667,8.073-1.999c2.07-1.333,3.519-3.367,4.347-6.097
		c0.828-2.736,1.242-6.1,1.242-10.098V71.249h-33.12v-20.7h59.823v88.354c0,9.972-1.934,18.058-5.796,24.261
		c-3.865,6.197-8.869,10.68-15.007,13.445c-6.142,2.759-12.663,4.143-19.562,4.143C334.214,180.752,328.143,179.475,322.76,176.922z
		 M366.231,30.677c-4.418,0-8.176-1.481-11.281-4.45c-3.105-2.966-4.658-6.521-4.658-10.661c0-4.415,1.481-8.073,4.451-10.971
		c2.966-2.898,6.795-4.347,11.488-4.347c4.276,0,8.038,1.52,11.282,4.554c3.241,3.037,4.864,6.624,4.864,10.764
		s-1.624,7.695-4.864,10.661C374.268,29.196,370.507,30.677,366.231,30.677z"/>
	<path class="st1" d="M461.036,146.804c-6.901,0-13.318-1.103-19.251-3.302c-5.935-2.203-11.074-5.372-15.421-9.512
		c-4.347-4.14-7.762-9.211-10.246-15.221c-2.484-6.006-3.726-12.815-3.726-20.425c0-7.743,1.207-14.716,3.623-20.926
		c2.413-6.207,5.692-11.447,9.833-15.719c4.14-4.272,9.004-7.542,14.594-9.813c5.589-2.271,11.624-3.406,18.112-3.406
		c5.656,0,11.003,0.98,16.042,2.94c5.036,1.96,9.522,4.897,13.455,8.814c3.934,3.917,7.038,8.778,9.315,14.587
		c2.276,5.809,3.415,12.494,3.415,20.056c0,1.488,0,3.312,0,5.473s-0.071,3.985-0.207,5.469h-62.721
		c0.274,3.513,1.139,6.553,2.588,9.121c1.448,2.568,3.312,4.7,5.589,6.391c2.276,1.691,4.828,2.943,7.658,3.758
		c2.827,0.815,5.693,1.223,8.591,1.223c2.898,0,5.621-0.239,8.177-0.725c2.552-0.482,5.036-1.346,7.452-2.587
		c2.413-1.242,4.726-3.034,6.935-5.382l13.248,13.041c-3.177,3.726-6.695,6.799-10.558,9.212c-3.865,2.416-8.04,4.175-12.523,5.278
		C470.523,146.251,465.865,146.804,461.036,146.804z M438.06,86.153h37.467c0-2.83-0.382-5.34-1.139-7.526
		c-0.76-2.187-1.934-3.988-3.519-5.405c-1.588-1.417-3.486-2.477-5.692-3.186c-2.209-0.708-4.762-1.064-7.659-1.064
		c-2.484,0-4.832,0.323-7.038,0.967c-2.209,0.644-4.176,1.672-5.899,3.089c-1.728,1.417-3.141,3.218-4.243,5.405
		C439.231,80.619,438.474,83.193,438.06,86.153z"/>
	<path class="st1" d="M546.01,143.301c-6.142-2.335-11.488-5.673-16.042-10.014c-4.555-4.337-8.073-9.444-10.558-15.318
		c-2.483-5.874-3.726-12.349-3.726-19.426c0-6.941,1.242-13.452,3.726-19.526c2.484-6.074,6.003-11.379,10.558-15.92
		c4.554-4.538,9.9-8.108,16.042-10.712c6.139-2.604,12.799-3.907,19.976-3.907c9.244,0,17.249,1.656,24.012,4.968
		c6.761,3.312,12.143,8.005,16.146,14.076l-14.283,15.732l-1.449,1.449l-1.655-1.242c-0.14-1.103-0.311-2.241-0.518-3.416
		c-0.207-1.171-1.003-2.655-2.381-4.45c-2.484-2.484-5.278-4.172-8.384-5.072c-3.104-0.896-6.659-1.346-10.66-1.346
		c-3.312,0-6.417,0.654-9.315,1.957c-2.897,1.303-5.521,3.192-7.865,5.67c-2.349,2.478-4.176,5.543-5.485,9.192
		c-1.313,3.652-1.967,7.889-1.967,12.714c0,4.172,0.688,7.989,2.069,11.443c1.378,3.454,3.209,6.323,5.486,8.604
		c2.276,2.283,4.896,4.043,7.865,5.282c2.967,1.239,6.036,1.856,9.212,1.856c2.898,0,5.692-0.378,8.384-1.139
		c2.69-0.757,5.382-1.999,8.072-3.726c2.691-1.724,5.279-4.104,7.763-7.141l14.283,16.56c-5.246,5.796-11.421,9.971-18.526,12.523
		c-7.109,2.552-14.111,3.829-21.011,3.829C558.74,146.804,552.149,145.633,546.01,143.301z"/>
	<path class="st1" d="M623.531,50.549h76.176l-0.413,20.7h-76.177L623.531,50.549z M659.861,144.378
		c-4.212-1.617-7.73-4.347-10.558-8.189c-2.83-3.843-4.936-8.998-6.313-15.47c-1.381-6.469-1.862-14.558-1.449-24.264l2.898-68.349
		l26.91-3.435l1.863-0.204l0.207,2.212c-0.554,0.941-1.106,1.882-1.656,2.82c-0.554,0.938-0.899,2.549-1.035,4.829l-2.484,29.181
		l1.242,0.805l-1.656,30.791c-0.414,8.187-0.104,14.526,0.932,19.019c1.035,4.496,2.588,7.581,4.658,9.256
		c2.069,1.679,4.414,2.517,7.037,2.517c4.276,0,8.177-0.896,11.696-2.691c3.519-1.792,6.728-3.862,9.625-6.21l4.968,18.837
		c-4.692,3.451-9.729,6.142-15.11,8.073c-5.382,1.931-11.249,2.898-17.596,2.898C668.793,146.804,664.069,145.995,659.861,144.378z"
		/>
</g>
</svg>
