<?xml version="1.0" encoding="utf-8"?>
<!-- Generator: Adobe Illustrator 26.3.1, SVG Export Plug-In . SVG Version: 6.00 Build 0)  -->
<svg version="1.1" id="レイヤー_1" xmlns="http://www.w3.org/2000/svg" xmlns:xlink="http://www.w3.org/1999/xlink" x="0px"
	 y="0px" width="608px" height="180px" viewBox="0 0 608 180" style="enable-background:new 0 0 608 180;" xml:space="preserve">
<style type="text/css">
	.st0{opacity:0.4;}
	.st1{fill:#FFFFFF;}
</style>
<g class="st0">
	<path class="st1" d="M34.279,145.166V38.146H0.331V16.205h95.013v21.942H59.326v107.019H34.279z"/>
	<path class="st1" d="M151.027,146.821c-8.694,0-16.56-2.038-23.598-6.119c-7.038-4.079-12.627-9.829-16.767-17.255
		c-4.14-7.426-6.21-16.02-6.21-25.788c0-9.231,2.07-17.556,6.21-24.982c4.14-7.423,9.729-13.31,16.767-17.657
		c7.038-4.347,14.904-6.523,23.598-6.523s16.592,2.177,23.702,6.523c7.106,4.347,12.763,10.234,16.974,17.657
		c4.208,7.426,6.314,15.751,6.314,24.982c0,9.632-2.106,18.161-6.314,25.584c-4.211,7.426-9.868,13.212-16.974,17.359
		C167.619,144.749,159.721,146.821,151.027,146.821z M151.027,125.915c4.14,0,7.763-1.177,10.868-3.532
		c3.105-2.355,5.553-5.657,7.348-9.907c1.792-4.25,2.691-9.189,2.691-14.816c0-6.016-0.899-11.12-2.691-15.305
		c-1.795-4.186-4.243-7.387-7.348-9.613c-3.105-2.225-6.728-3.338-10.868-3.338c-3.865,0-7.349,1.113-10.454,3.338
		c-3.105,2.226-5.557,5.427-7.348,9.613c-1.795,4.185-2.691,9.289-2.691,15.305c0,5.627,0.896,10.566,2.691,14.816
		c1.792,4.25,4.243,7.552,7.348,9.907C143.678,124.737,147.162,125.915,151.027,125.915z"/>
	<path class="st1" d="M212.092,179.734l-0.207-129.168h25.875v11.799c2.345-3.312,4.865-5.968,7.556-7.97
		c2.691-1.999,5.621-3.483,8.797-4.451c3.173-0.964,6.553-1.449,10.143-1.449c5.243,0,10.143,1.07,14.697,3.205
		c4.554,2.135,8.555,5.308,12.006,9.512c3.448,4.205,6.139,9.38,8.073,15.519c1.931,6.142,2.898,13.284,2.898,21.428
		c0,8.145-1.035,15.289-3.105,21.428c-2.07,6.142-4.864,11.25-8.383,15.318c-3.519,4.072-7.591,7.077-12.213,9.011
		c-4.625,1.934-9.418,2.904-14.387,2.904c-3.312,0-6.556-0.346-9.729-1.035c-3.176-0.689-6.106-1.724-8.797-3.105
		c-2.691-1.378-4.936-3.105-6.728-5.175v42.228H212.092z M255.976,126.95c3.034,0,5.76-0.521,8.176-1.565
		c2.413-1.045,4.519-2.71,6.313-4.994c1.792-2.283,3.173-5.417,4.14-9.402c0.964-3.981,1.449-8.781,1.449-14.396
		c0-5.744-0.795-10.703-2.38-14.881c-1.588-4.179-3.797-7.378-6.624-9.597c-2.83-2.219-6.178-3.331-10.04-3.331
		c-3.037,0-5.728,0.556-8.073,1.666c-2.348,1.109-4.279,2.872-5.796,5.288c-1.521,2.416-2.659,5.55-3.416,9.399
		c-0.76,3.852-1.139,8.39-1.139,13.61c0,3.788,0.239,7.216,0.725,10.282c0.482,3.069,1.171,5.715,2.07,7.934
		c0.896,2.219,2.035,4.082,3.416,5.583c1.378,1.5,3.001,2.61,4.865,3.328C251.525,126.59,253.628,126.95,255.976,126.95z"/>
	<path class="st1" d="M322.836,145.166v-20.7h23.393V71.06h-22.357V50.566h48.854v73.899h21.32v20.7H322.836z M358.234,30.694
		c-4.418,0-8.178-1.481-11.281-4.45c-3.105-2.966-4.658-6.521-4.658-10.661c0-4.415,1.48-8.073,4.451-10.971
		c2.965-2.898,6.795-4.347,11.488-4.347c4.275,0,8.037,1.52,11.281,4.554c3.24,3.037,4.865,6.624,4.865,10.764
		s-1.625,7.695-4.865,10.661C366.271,29.213,362.51,30.694,358.234,30.694z"/>
	<path class="st1" d="M447.348,143.319c-6.142-2.335-11.488-5.673-16.042-10.014c-4.555-4.337-8.073-9.444-10.558-15.318
		c-2.483-5.874-3.726-12.349-3.726-19.426c0-6.941,1.242-13.452,3.726-19.526c2.484-6.074,6.003-11.379,10.558-15.92
		c4.554-4.538,9.9-8.108,16.042-10.712c6.139-2.604,12.799-3.907,19.976-3.907c9.244,0,17.249,1.656,24.012,4.968
		c6.761,3.312,12.143,8.005,16.146,14.076l-14.283,15.732l-1.449,1.449l-1.655-1.242c-0.14-1.103-0.311-2.241-0.518-3.416
		c-0.207-1.171-1.003-2.655-2.381-4.45c-2.484-2.484-5.278-4.172-8.384-5.072c-3.104-0.896-6.659-1.346-10.66-1.346
		c-3.312,0-6.417,0.654-9.315,1.957c-2.897,1.303-5.521,3.192-7.865,5.67c-2.349,2.478-4.176,5.543-5.485,9.192
		c-1.313,3.652-1.967,7.889-1.967,12.714c0,4.172,0.688,7.989,2.069,11.443c1.378,3.454,3.209,6.323,5.486,8.604
		c2.276,2.283,4.896,4.043,7.865,5.282c2.967,1.239,6.036,1.856,9.212,1.856c2.898,0,5.692-0.378,8.384-1.139
		c2.69-0.757,5.382-1.999,8.072-3.726c2.691-1.724,5.279-4.104,7.763-7.141l14.283,16.56c-5.246,5.796-11.421,9.971-18.526,12.523
		c-7.109,2.552-14.111,3.829-21.011,3.829C460.078,146.821,453.486,145.651,447.348,143.319z"/>
	<path class="st1" d="M550.33,145.166c-5.521-1.103-10.66-2.759-15.421-4.968c-4.762-2.206-9.076-5.175-12.938-8.901l10.971-20.7
		l0.828-1.656l1.863,1.035c0.274,0.967,0.653,2.038,1.138,3.208c0.482,1.174,1.553,2.52,3.209,4.037
		c3.587,2.898,7.659,5.143,12.213,6.728c4.554,1.588,9.797,2.38,15.732,2.38c3.447,0,6.381-0.34,8.797-1.019
		c2.413-0.679,4.312-1.666,5.692-2.959c1.378-1.293,2.07-2.685,2.07-4.166c0-1.469-0.449-2.736-1.346-3.804
		c-0.899-1.067-2.244-2.038-4.036-2.905c-1.795-0.867-4.072-1.737-6.831-2.604c-2.763-0.867-6.074-1.834-9.937-2.904
		c-7.037-1.734-13.111-3.904-18.216-6.508c-5.106-2.6-9.04-5.77-11.799-9.509c-2.762-3.739-4.14-8.212-4.14-13.419
		c0-5.208,1.62-9.914,4.864-14.118c3.241-4.205,7.795-7.575,13.662-10.111c5.864-2.536,12.659-3.807,20.39-3.807
		c3.861,0,7.623,0.311,11.281,0.932c3.655,0.621,7.105,1.52,10.35,2.691c3.241,1.174,6.313,2.691,9.212,4.554
		c2.897,1.863,5.657,4.037,8.28,6.521l-12.42,17.802l-1.242,1.656l-1.863-1.449c-0.139-1.103-0.449-2.138-0.932-3.105
		c-0.485-0.964-1.484-2.206-3.001-3.726c-2.763-1.931-5.796-3.312-9.108-4.14c-3.312-0.828-6.695-1.242-10.143-1.242
		c-4.279,0-8.041,0.614-11.282,1.837c-3.244,1.223-4.864,3.06-4.864,5.505c0,1.604,0.793,3.037,2.381,4.305
		c1.585,1.268,4.068,2.438,7.452,3.506c3.38,1.067,7.691,2.271,12.938,3.603c7.865,1.737,14.247,3.939,19.147,6.611
		c4.896,2.671,8.519,5.874,10.867,9.612c2.345,3.739,3.519,8.076,3.519,13.015c0,5.343-1.552,10.282-4.657,14.82
		c-3.104,4.541-7.627,8.177-13.559,10.913c-5.935,2.736-13.18,4.104-21.734,4.104C561.645,146.821,555.849,146.269,550.33,145.166z"
		/>
</g>
</svg>
